<svg width="130" height="36" viewBox="0 0 130 36" fill="none" xmlns="http://www.w3.org/2000/svg">
<g filter="url(#filter0_b_2139_2215)">
<rect x="0.49707" width="129" height="36" rx="18" fill="#F9FBFB"/>
<path d="M11.4714 19.3352H15.0707C15.5119 19.3352 15.78 19.1389 15.8729 18.7462L17.4393 11.4865H16.5231L18.9064 25.949C18.9381 26.1369 19.0183 26.2741 19.1513 26.3649C19.2843 26.4557 19.4321 26.5 19.5988 26.5C19.7656 26.5 19.9155 26.4536 20.0527 26.3607C20.1899 26.2678 20.2765 26.1306 20.3145 25.9511L22.6197 14.9422L21.8365 14.9274L22.5437 18.6597C22.6281 19.1093 22.8984 19.3331 23.3543 19.3331H26.523C26.7298 19.3331 26.9072 19.2634 27.0486 19.1241C27.1922 18.9848 27.2639 18.8138 27.2639 18.6132C27.2639 18.3979 27.1943 18.2206 27.0549 18.0813C26.9156 17.9419 26.7383 17.8723 26.523 17.8723H22.6619L23.9876 19.0165L22.8498 13.8635C22.8097 13.684 22.7253 13.551 22.5923 13.4666C22.4593 13.38 22.3136 13.3378 22.1532 13.3378C21.9927 13.3378 21.845 13.3843 21.712 13.4793C21.5769 13.5721 21.4903 13.7115 21.4523 13.8951L19.0838 24.5009H19.9577L17.6039 10.0425C17.5786 9.86309 17.5047 9.72799 17.3802 9.63722C17.2556 9.54644 17.1142 9.5 16.9601 9.5C16.8039 9.5 16.6603 9.54433 16.5315 9.63299C16.4028 9.72166 16.3183 9.85676 16.2782 10.0383L14.3509 18.9911L15.723 17.8723H11.4714C11.2646 17.8723 11.0872 17.9441 10.9458 18.0876C10.8022 18.2312 10.7305 18.4064 10.7305 18.6132C10.7305 18.8201 10.8022 18.9848 10.9458 19.1241C11.0893 19.2634 11.2646 19.3331 11.4714 19.3331V19.3352Z" fill="#54698C"/>
<path d="M44.0078 15.4785H41.8398L40.6914 20.248H40.6504L39.4844 15.4785H37.252L39.4492 22H41.8398L44.0078 15.4785ZM44.5352 22H46.6152V15.4785H44.5352V22ZM45.5723 14.9395C46.1641 14.9395 46.6445 14.5059 46.6445 13.9141C46.6445 13.3281 46.1641 12.8887 45.5723 12.8887C44.9863 12.8887 44.5059 13.3281 44.5059 13.9141C44.5059 14.5059 44.9863 14.9395 45.5723 14.9395ZM50.7344 16.8145C51.4258 16.8145 51.9004 17.2832 51.9414 18.0039H49.5156C49.5684 17.3066 50.0664 16.8145 50.7344 16.8145ZM51.9883 19.9492C51.8301 20.3945 51.3789 20.6641 50.8047 20.6641C50.0254 20.6641 49.4922 20.1191 49.4922 19.3223V19.1934H53.9043V18.6016C53.9043 16.6152 52.6504 15.3379 50.7051 15.3379C48.7246 15.3379 47.4707 16.668 47.4707 18.7715C47.4707 20.8691 48.7129 22.1406 50.7754 22.1406C52.4629 22.1406 53.6641 21.2852 53.8633 19.9492H51.9883ZM64.2168 15.4785H62.166L61.3164 20.1133H61.2754L60.2441 15.4785H58.2637L57.2441 20.1133H57.2031L56.3535 15.4785H54.2617L55.9551 22H58.1582L59.2012 17.5762H59.2422L60.291 22H62.5293L64.2168 15.4785ZM71.3477 15.3906C70.416 15.3906 69.6895 15.8535 69.3613 16.6211H69.3203V15.4785H67.2578V24.1094H69.332V20.8867H69.373C69.7012 21.6367 70.4219 22.0879 71.3711 22.0879C73 22.0879 73.9609 20.8516 73.9609 18.7363C73.9609 16.6211 72.9941 15.3906 71.3477 15.3906ZM70.5801 20.4531C69.8184 20.4531 69.3262 19.791 69.3262 18.7422C69.3262 17.7051 69.8184 17.0254 70.5801 17.0254C71.3418 17.0254 71.834 17.6992 71.834 18.7363C71.834 19.7852 71.3418 20.4531 70.5801 20.4531ZM74.8047 22H76.8789V18.5547C76.8789 17.6406 77.3711 17.1367 78.2617 17.1367C78.5137 17.1367 78.7598 17.1777 78.9355 17.2539V15.4727C78.7949 15.4258 78.6074 15.3906 78.4023 15.3906C77.6289 15.3906 77.0957 15.8359 76.8613 16.7031H76.8203V15.4785H74.8047V22ZM82.5391 22.1406C84.5957 22.1406 85.8613 20.8984 85.8613 18.7363C85.8613 16.6094 84.5723 15.3379 82.5391 15.3379C80.5117 15.3379 79.2168 16.6211 79.2168 18.7363C79.2168 20.8926 80.4824 22.1406 82.5391 22.1406ZM82.5391 20.6113C81.7773 20.6113 81.3203 19.9375 81.3203 18.7363C81.3203 17.5645 81.7832 16.8672 82.5391 16.8672C83.2891 16.8672 83.7578 17.5645 83.7578 18.7363C83.7578 19.9375 83.2949 20.6113 82.5391 20.6113ZM89.8691 20.3945C89.0898 20.3945 88.6152 19.791 88.6152 18.7305C88.6152 17.6816 89.0957 17.0254 89.8691 17.0254C90.6426 17.0254 91.1289 17.6875 91.1289 18.7363C91.1289 19.791 90.6484 20.3945 89.8691 20.3945ZM89.834 24.4199C91.8613 24.4199 93.1973 23.418 93.1973 21.8711V15.4785H91.1289V16.6211H91.0938C90.7949 15.8945 90.0684 15.3906 89.125 15.3906C87.4902 15.3906 86.4941 16.6504 86.4941 18.7188C86.4941 20.7461 87.5371 21.9355 89.0898 21.9355C90.0508 21.9355 90.8125 21.4785 91.0762 20.7871H91.1172V22.0234C91.1172 22.6562 90.6191 23.0371 89.8691 23.0371C89.2715 23.0371 88.7793 22.7969 88.6914 22.4277H86.6758C86.7344 23.6465 88 24.4199 89.834 24.4199ZM94.2461 22H96.3203V18.5547C96.3203 17.6406 96.8125 17.1367 97.7031 17.1367C97.9551 17.1367 98.2012 17.1777 98.377 17.2539V15.4727C98.2363 15.4258 98.0488 15.3906 97.8438 15.3906C97.0703 15.3906 96.5371 15.8359 96.3027 16.7031H96.2617V15.4785H94.2461V22ZM101.922 16.8145C102.613 16.8145 103.088 17.2832 103.129 18.0039H100.703C100.756 17.3066 101.254 16.8145 101.922 16.8145ZM103.176 19.9492C103.018 20.3945 102.566 20.6641 101.992 20.6641C101.213 20.6641 100.68 20.1191 100.68 19.3223V19.1934H105.092V18.6016C105.092 16.6152 103.838 15.3379 101.893 15.3379C99.9121 15.3379 98.6582 16.668 98.6582 18.7715C98.6582 20.8691 99.9004 22.1406 101.963 22.1406C103.65 22.1406 104.852 21.2852 105.051 19.9492H103.176ZM105.812 17.4531C105.812 18.4434 106.486 19.1113 107.758 19.3809L108.982 19.6387C109.504 19.75 109.703 19.9023 109.703 20.1719C109.703 20.5234 109.352 20.7344 108.771 20.7344C108.145 20.7344 107.74 20.4473 107.676 19.9551H105.66C105.748 21.2793 106.855 22.1406 108.73 22.1406C110.541 22.1406 111.76 21.2793 111.76 19.9375C111.76 18.9531 111.209 18.4258 109.908 18.1504L108.561 17.8691C108.057 17.7637 107.811 17.582 107.811 17.3184C107.811 16.9727 108.156 16.7441 108.684 16.7441C109.281 16.7441 109.668 17.043 109.686 17.5117H111.584C111.572 16.1758 110.465 15.3379 108.707 15.3379C106.932 15.3379 105.812 16.1582 105.812 17.4531ZM112.422 17.4531C112.422 18.4434 113.096 19.1113 114.367 19.3809L115.592 19.6387C116.113 19.75 116.312 19.9023 116.312 20.1719C116.312 20.5234 115.961 20.7344 115.381 20.7344C114.754 20.7344 114.35 20.4473 114.285 19.9551H112.27C112.357 21.2793 113.465 22.1406 115.34 22.1406C117.15 22.1406 118.369 21.2793 118.369 19.9375C118.369 18.9531 117.818 18.4258 116.518 18.1504L115.17 17.8691C114.666 17.7637 114.42 17.582 114.42 17.3184C114.42 16.9727 114.766 16.7441 115.293 16.7441C115.891 16.7441 116.277 17.043 116.295 17.5117H118.193C118.182 16.1758 117.074 15.3379 115.316 15.3379C113.541 15.3379 112.422 16.1582 112.422 17.4531Z" fill="#54698C"/>
</g>
<defs>
<filter id="filter0_b_2139_2215" x="-31.5029" y="-32" width="193" height="100" filterUnits="userSpaceOnUse" color-interpolation-filters="sRGB">
<feFlood flood-opacity="0" result="BackgroundImageFix"/>
<feGaussianBlur in="BackgroundImageFix" stdDeviation="16"/>
<feComposite in2="SourceAlpha" operator="in" result="effect1_backgroundBlur_2139_2215"/>
<feBlend mode="normal" in="SourceGraphic" in2="effect1_backgroundBlur_2139_2215" result="shape"/>
</filter>
</defs>
</svg>
