<svg width="23" height="20" viewBox="0 0 23 20" fill="none" xmlns="http://www.w3.org/2000/svg">
<path d="M3.10178 20H19.0101C20.0352 20 20.8078 19.7356 21.3306 19.2069C21.8534 18.6782 22.1148 17.9116 22.1148 16.907V3.08122C22.1148 2.07666 21.8534 1.31297 21.3306 0.787194C20.8078 0.261419 20.0352 0 19.0101 0H3.10178C2.0796 0 1.30709 0.261419 0.784256 0.781319C0.261419 1.30122 0 2.06785 0 3.08122V16.907C0 17.9263 0.261419 18.6958 0.784256 19.2187C1.30709 19.7386 2.0796 20 3.10178 20ZM3.06653 19.0307C2.37627 19.0307 1.85049 18.8545 1.49802 18.502C1.14261 18.1495 0.966368 17.6237 0.966368 16.9247V6.97312C0.966368 6.27405 1.14261 5.74828 1.49802 5.39286C1.85343 5.03745 2.37627 4.85828 3.06653 4.85828H19.0395C19.7121 4.85828 20.2291 5.03745 20.5963 5.39286C20.9634 5.74828 21.1455 6.27699 21.1455 6.97312V16.9276C21.1455 17.6267 20.9634 18.1495 20.5963 18.5049C20.2291 18.8574 19.7121 19.0336 19.0395 19.0336H3.06653V19.0307ZM8.77662 8.80599H9.43751C9.59612 8.80599 9.69893 8.78249 9.74299 8.73844C9.78705 8.69438 9.81054 8.59745 9.81054 8.44471V7.78382C9.81054 7.63401 9.78705 7.53415 9.74299 7.49009C9.69893 7.44603 9.59612 7.42253 9.43751 7.42253H8.77662C8.61801 7.42253 8.5152 7.44603 8.47114 7.49009C8.42708 7.53415 8.40358 7.63108 8.40358 7.78382V8.44471C8.40358 8.59451 8.42708 8.69438 8.47114 8.73844C8.5152 8.78249 8.61801 8.80599 8.77662 8.80599ZM12.6627 8.80599H13.3235C13.4733 8.80599 13.5761 8.78249 13.6231 8.73844C13.6731 8.69438 13.6966 8.59745 13.6966 8.44471V7.78382C13.6966 7.63401 13.6731 7.53415 13.6231 7.49009C13.5732 7.44603 13.4733 7.42253 13.3235 7.42253H12.6627C12.504 7.42253 12.4012 7.44603 12.3572 7.49009C12.3131 7.53415 12.2896 7.63108 12.2896 7.78382V8.44471C12.2896 8.59451 12.3131 8.69438 12.3572 8.73844C12.4012 8.78249 12.504 8.80599 12.6627 8.80599ZM16.5487 8.80599H17.2096C17.3682 8.80599 17.471 8.78249 17.5151 8.73844C17.5591 8.69438 17.5826 8.59745 17.5826 8.44471V7.78382C17.5826 7.63401 17.5591 7.53415 17.5151 7.49009C17.471 7.44603 17.3682 7.42253 17.2096 7.42253H16.5487C16.3989 7.42253 16.2961 7.44603 16.2491 7.49009C16.1991 7.53415 16.1756 7.63108 16.1756 7.78382V8.44471C16.1756 8.59451 16.1991 8.69438 16.2491 8.73844C16.299 8.78249 16.3989 8.80599 16.5487 8.80599ZM4.89059 12.6333H5.55148C5.71009 12.6333 5.81289 12.6098 5.85695 12.5657C5.90101 12.5217 5.92451 12.4247 5.92451 12.272V11.6111C5.92451 11.4613 5.90101 11.3614 5.85695 11.3174C5.81289 11.2733 5.71009 11.2498 5.55148 11.2498H4.89059C4.74078 11.2498 4.63798 11.2733 4.59098 11.3174C4.54105 11.3614 4.51755 11.4584 4.51755 11.6111V12.272C4.51755 12.4218 4.54105 12.5217 4.59098 12.5657C4.64092 12.6098 4.74078 12.6333 4.89059 12.6333ZM8.77662 12.6333H9.43751C9.59612 12.6333 9.69893 12.6098 9.74299 12.5657C9.78705 12.5217 9.81054 12.4247 9.81054 12.272V11.6111C9.81054 11.4613 9.78705 11.3614 9.74299 11.3174C9.69893 11.2733 9.59612 11.2498 9.43751 11.2498H8.77662C8.61801 11.2498 8.5152 11.2733 8.47114 11.3174C8.42708 11.3614 8.40358 11.4584 8.40358 11.6111V12.272C8.40358 12.4218 8.42708 12.5217 8.47114 12.5657C8.5152 12.6098 8.61801 12.6333 8.77662 12.6333ZM12.6627 12.6333H13.3235C13.4733 12.6333 13.5761 12.6098 13.6231 12.5657C13.6731 12.5217 13.6966 12.4247 13.6966 12.272V11.6111C13.6966 11.4613 13.6731 11.3614 13.6231 11.3174C13.5732 11.2733 13.4733 11.2498 13.3235 11.2498H12.6627C12.504 11.2498 12.4012 11.2733 12.3572 11.3174C12.3131 11.3614 12.2896 11.4584 12.2896 11.6111V12.272C12.2896 12.4218 12.3131 12.5217 12.3572 12.5657C12.4012 12.6098 12.504 12.6333 12.6627 12.6333ZM16.5487 12.6333H17.2096C17.3682 12.6333 17.471 12.6098 17.5151 12.5657C17.5591 12.5217 17.5826 12.4247 17.5826 12.272V11.6111C17.5826 11.4613 17.5591 11.3614 17.5151 11.3174C17.471 11.2733 17.3682 11.2498 17.2096 11.2498H16.5487C16.3989 11.2498 16.2961 11.2733 16.2491 11.3174C16.1991 11.3614 16.1756 11.4584 16.1756 11.6111V12.272C16.1756 12.4218 16.1991 12.5217 16.2491 12.5657C16.299 12.6098 16.3989 12.6333 16.5487 12.6333ZM4.89059 16.4606H5.55148C5.71009 16.4606 5.81289 16.4371 5.85695 16.393C5.90101 16.349 5.92451 16.252 5.92451 16.0993V15.4384C5.92451 15.2886 5.90101 15.1887 5.85695 15.1447C5.81289 15.1006 5.71009 15.0771 5.55148 15.0771H4.89059C4.74078 15.0771 4.63798 15.1006 4.59098 15.1447C4.54105 15.1887 4.51755 15.2857 4.51755 15.4384V16.0993C4.51755 16.2491 4.54105 16.349 4.59098 16.393C4.64092 16.4371 4.74078 16.4606 4.89059 16.4606ZM8.77662 16.4606H9.43751C9.59612 16.4606 9.69893 16.4371 9.74299 16.393C9.78705 16.349 9.81054 16.252 9.81054 16.0993V15.4384C9.81054 15.2886 9.78705 15.1887 9.74299 15.1447C9.69893 15.1006 9.59612 15.0771 9.43751 15.0771H8.77662C8.61801 15.0771 8.5152 15.1006 8.47114 15.1447C8.42708 15.1887 8.40358 15.2857 8.40358 15.4384V16.0993C8.40358 16.2491 8.42708 16.349 8.47114 16.393C8.5152 16.4371 8.61801 16.4606 8.77662 16.4606ZM12.6627 16.4606H13.3235C13.4733 16.4606 13.5761 16.4371 13.6231 16.393C13.6731 16.349 13.6966 16.252 13.6966 16.0993V15.4384C13.6966 15.2886 13.6731 15.1887 13.6231 15.1447C13.5732 15.1006 13.4733 15.0771 13.3235 15.0771H12.6627C12.504 15.0771 12.4012 15.1006 12.3572 15.1447C12.3131 15.1887 12.2896 15.2857 12.2896 15.4384V16.0993C12.2896 16.2491 12.3131 16.349 12.3572 16.393C12.4012 16.4371 12.504 16.4606 12.6627 16.4606Z" fill="#862400"/>
</svg>
