<svg width="41" height="43" viewBox="0 0 41 43" fill="none" xmlns="http://www.w3.org/2000/svg">
<path d="M12.624 27.1823C12.624 27.6255 12.7811 27.9825 13.093 28.2557C13.4049 28.5289 13.8351 28.6645 14.3815 28.6645H18.7011C18.7247 29.3313 18.914 29.9573 19.2668 30.5446C19.6196 31.1319 20.0993 31.603 20.7081 31.9622C21.3147 32.3215 22.016 32.5 22.812 32.5C23.6079 32.5 24.3113 32.3215 24.9158 31.9622C25.5224 31.603 26 31.1297 26.3506 30.5446C26.7013 29.9573 26.8906 29.3313 26.9207 28.6645H31.2424C31.7845 28.6645 32.2126 28.5289 32.5266 28.2557C32.8407 27.9825 32.9999 27.6255 32.9999 27.1823C32.9999 26.6273 32.7891 26.1046 32.3674 25.6141C31.9458 25.1236 31.4984 24.6504 31.0251 24.1943C30.782 23.9513 30.5949 23.6415 30.4594 23.265C30.3238 22.8886 30.2227 22.4756 30.1539 22.0238C30.0851 21.5721 30.027 21.1139 29.9818 20.6492C29.9753 20.348 29.9624 20.0533 29.9431 19.7672C29.9237 19.4811 29.9001 19.2036 29.8699 18.9326C29.558 19.0616 29.2203 19.1498 28.8567 19.1972C28.4932 19.2445 28.1469 19.2466 27.822 19.2015C27.8478 19.4446 27.8694 19.7005 27.8866 19.9694C27.9059 20.2362 27.9167 20.5244 27.9253 20.8278C27.9597 21.4925 28.0242 22.1013 28.1146 22.6541C28.2049 23.207 28.3319 23.6931 28.491 24.1147C28.6502 24.5364 28.8524 24.8849 29.0955 25.1602C29.3537 25.4549 29.6118 25.7346 29.8742 25.9992C30.1345 26.2616 30.3324 26.4681 30.468 26.6144V26.7413H15.1344V26.6144C15.2721 26.4681 15.4743 26.2616 15.7411 25.9992C16.01 25.7367 16.2724 25.4571 16.5305 25.1602C16.7693 24.8849 16.9694 24.5364 17.1307 24.1147C17.2921 23.6931 17.419 23.207 17.5115 22.6541C17.604 22.1013 17.6664 21.4925 17.7008 20.8278C17.7374 19.4058 17.8944 18.2743 18.1762 17.4332C18.458 16.5921 18.828 15.9618 19.2883 15.5402C19.7487 15.1186 20.2585 14.8325 20.82 14.6819C20.949 14.6518 21.048 14.6001 21.119 14.5313C21.19 14.4625 21.2308 14.357 21.2416 14.2129C21.2717 13.6794 21.4245 13.247 21.702 12.9201C21.9795 12.5931 22.3495 12.4274 22.8141 12.4274C23.0034 12.4274 23.1647 12.4511 23.2981 12.4984C23.3928 12.1865 23.5197 11.8897 23.6789 11.61C23.8381 11.3304 24.0274 11.0722 24.2425 10.8399C23.8015 10.614 23.3239 10.5 22.8141 10.5C22.0332 10.5 21.3664 10.7323 20.8157 11.1991C20.265 11.6659 19.8885 12.2467 19.6863 12.9437C18.3117 13.4406 17.3114 14.3398 16.6876 15.6413C16.0637 16.9406 15.7153 18.5862 15.6464 20.5761C15.6077 21.0579 15.5518 21.5312 15.4829 21.9915C15.4141 22.4519 15.3108 22.8735 15.1753 23.2543C15.0398 23.635 14.8483 23.9491 14.6009 24.1922C14.1255 24.6482 13.6781 25.1215 13.2586 25.612C12.837 26.1024 12.6262 26.6252 12.6262 27.1802L12.624 27.1823ZM20.678 28.6645H24.9459C24.905 29.3206 24.6878 29.8455 24.2963 30.237C23.9047 30.6285 23.41 30.8242 22.8141 30.8242C22.2182 30.8242 21.7235 30.6285 21.332 30.237C20.9404 29.8455 20.7232 29.3227 20.6823 28.6645H20.678ZM28.0458 17.8226C28.7105 17.8226 29.3171 17.6591 29.8678 17.3343C30.4185 17.0094 30.8573 16.5706 31.1843 16.022C31.5134 15.4735 31.6769 14.8669 31.6769 14.2022C31.6769 13.5375 31.5134 12.9308 31.1843 12.3823C30.8552 11.8337 30.4163 11.397 29.8678 11.0701C29.3171 10.7452 28.7105 10.5817 28.0458 10.5817C27.381 10.5817 26.783 10.7452 26.2345 11.0701C25.6859 11.3949 25.2471 11.8337 24.918 12.3823C24.5888 12.9308 24.4253 13.5375 24.4253 14.2022C24.4253 14.8669 24.5888 15.4735 24.918 16.022C25.2471 16.5706 25.6859 17.0073 26.2345 17.3343C26.783 17.6591 27.3875 17.8226 28.0458 17.8226Z" fill="#F9FBFB"/>
</svg>
