<svg width="19" height="19" viewBox="0 0 19 19" fill="none" xmlns="http://www.w3.org/2000/svg">
<path d="M9.00465 18.5C10.2431 18.5 11.4048 18.2672 12.4897 17.7993C13.5745 17.3314 14.5313 16.6818 15.3624 15.8508C16.1912 15.0173 16.843 14.0605 17.3132 12.9757C17.7835 11.8908 18.021 10.7315 18.021 9.5C18.021 8.26849 17.7858 7.10916 17.3132 6.02431C16.843 4.93947 16.1912 3.98034 15.3577 3.14925C14.5243 2.31583 13.5675 1.66632 12.4827 1.20072C11.3978 0.732799 10.2362 0.5 8.99767 0.5C7.75918 0.5 6.60916 0.732799 5.52199 1.20072C4.43482 1.66865 3.48034 2.31816 2.65391 3.14925C1.82747 3.98267 1.18029 4.93947 0.707708 6.02431C0.237455 7.10916 0 8.26849 0 9.5C0 10.7315 0.235127 11.8908 0.707708 12.9757C1.17796 14.0605 1.82747 15.0197 2.65623 15.8508C3.485 16.6842 4.4418 17.3337 5.52897 17.7993C6.61614 18.2672 7.77315 18.5 9.00465 18.5ZM9.00465 17.173C7.94309 17.173 6.94904 16.9752 6.0225 16.5794C5.09596 16.1837 4.28117 15.6342 3.58044 14.9312C2.87972 14.2281 2.33032 13.411 1.93456 12.4822C1.5388 11.5533 1.33859 10.5569 1.33859 9.49534C1.33859 8.43378 1.53647 7.43973 1.9299 6.50854C2.32333 5.57967 2.87041 4.76255 3.57346 4.05949C4.27651 3.35644 5.08898 2.80704 6.01552 2.41128C6.94206 2.01552 7.93611 1.81764 8.99767 1.81764C10.0592 1.81764 11.0603 2.01552 11.9891 2.41128C12.918 2.80704 13.7328 3.35644 14.4359 4.05949C15.1389 4.76255 15.6883 5.57967 16.0887 6.50854C16.4868 7.4374 16.687 8.43378 16.687 9.49534C16.687 10.5569 16.4891 11.551 16.0934 12.4822C15.6976 13.411 15.1505 14.2281 14.4498 14.9312C13.7491 15.6342 12.9343 16.1837 12.0031 16.5794C11.0742 16.9752 10.0755 17.173 9.00698 17.173H9.00465ZM9.00465 11.0993C9.40274 11.0993 9.60528 10.8852 9.60993 10.4545L9.72633 5.72633C9.73099 5.52147 9.66348 5.35153 9.5238 5.21417C9.38412 5.07682 9.20719 5.00931 8.99534 5.00931C8.7835 5.00931 8.59726 5.07682 8.46223 5.20952C8.32721 5.34454 8.26203 5.51216 8.26668 5.71702L8.36911 10.4521C8.38075 10.8805 8.5926 11.097 9.00233 11.097L9.00465 11.0993ZM9.00465 13.9255C9.24211 13.9255 9.4493 13.8417 9.62623 13.6741C9.80315 13.5065 9.89162 13.3016 9.89162 13.0618C9.89162 12.8174 9.80548 12.6125 9.63088 12.4472C9.45629 12.2819 9.24909 12.2005 9.00465 12.2005C8.76022 12.2005 8.54371 12.2843 8.36911 12.4496C8.19452 12.6148 8.11071 12.8197 8.11071 13.0595C8.11071 13.2993 8.19917 13.4972 8.3761 13.6671C8.55303 13.837 8.76254 13.9232 9.00465 13.9232V13.9255Z" fill="#862400"/>
</svg>
