<svg width="108" height="100" viewBox="0 0 108 100" fill="none" xmlns="http://www.w3.org/2000/svg">
<rect width="4" height="4" rx="2" fill="#F3BE72"/>
<rect x="26" width="4" height="4" rx="2" fill="#F3BE72"/>
<rect x="52" width="4" height="4" rx="2" fill="#F3BE72"/>
<rect x="78" width="4" height="4" rx="2" fill="#F3BE72"/>
<rect x="104" width="4" height="4" rx="2" fill="#F3BE72"/>
<rect y="24" width="4" height="4" rx="2" fill="#F3BE72"/>
<rect x="26" y="24" width="4" height="4" rx="2" fill="#F3BE72"/>
<rect x="52" y="24" width="4" height="4" rx="2" fill="#F3BE72"/>
<rect x="78" y="24" width="4" height="4" rx="2" fill="#F3BE72"/>
<rect x="104" y="24" width="4" height="4" rx="2" fill="#F3BE72"/>
<rect y="48" width="4" height="4" rx="2" fill="#F3BE72"/>
<rect x="26" y="48" width="4" height="4" rx="2" fill="#F3BE72"/>
<rect x="52" y="48" width="4" height="4" rx="2" fill="#F3BE72"/>
<rect x="78" y="48" width="4" height="4" rx="2" fill="#F3BE72"/>
<rect x="104" y="48" width="4" height="4" rx="2" fill="#F3BE72"/>
<rect y="72" width="4" height="4" rx="2" fill="#F3BE72"/>
<rect x="26" y="72" width="4" height="4" rx="2" fill="#F3BE72"/>
<rect x="52" y="72" width="4" height="4" rx="2" fill="#F3BE72"/>
<rect x="78" y="72" width="4" height="4" rx="2" fill="#F3BE72"/>
<rect x="104" y="72" width="4" height="4" rx="2" fill="#F3BE72"/>
<rect y="96" width="4" height="4" rx="2" fill="#F3BE72"/>
<rect x="26" y="96" width="4" height="4" rx="2" fill="#F3BE72"/>
<rect x="52" y="96" width="4" height="4" rx="2" fill="#F3BE72"/>
<rect x="78" y="96" width="4" height="4" rx="2" fill="#F3BE72"/>
<rect x="104" y="96" width="4" height="4" rx="2" fill="#F3BE72"/>
</svg>
