<svg width="162" height="360" viewBox="0 0 162 360" fill="none" xmlns="http://www.w3.org/2000/svg">
<rect x="162" y="270" width="180" height="180" rx="90" transform="rotate(-180 162 270)" fill="#F3BE72"/>
<path d="M-3.60915 222.743C-7.38144 220.39 -6.71112 215.099 -7.00029 211.268C-7.00686 206.95 -7.48006 202.514 -6.77687 198.256C-6.61914 197.848 -6.19853 197.855 -5.86993 198.078C-4.81842 198.663 -5.11415 198.86 -6.09994 198.479C-6.37596 198.38 -6.27742 198.873 -6.31028 198.998C-6.23142 202.008 -5.82394 205.011 -5.63335 208.015C-5.25218 211.491 -5.47562 215.08 -4.56213 218.464C-4.5687 218.451 -4.56871 218.445 -4.57528 218.431C-4.20725 219.647 -3.27401 221.014 -1.83475 220.778C-0.270632 220.429 1.37231 218.786 1.08315 217.091C0.912279 216.447 0.741437 216.013 0.537707 215.441C-0.763537 212.103 -1.05928 208.495 -2.18309 205.11C-2.63655 203.598 -4.04952 202.494 -4.15467 200.891C-0.00777388 199.103 0.794003 211.018 1.92438 213.476C2.55528 215.362 3.52138 217.255 2.7656 219.207C1.89811 221.684 -0.960654 224.037 -3.60915 222.743Z" fill="#95A67C"/>
<path d="M21.6605 244.253C18.1182 244.121 15.1411 241.92 12.7752 239.488C11.0533 237.799 9.47607 235.821 7.19561 234.868C3.075 233.166 -1.16389 235.696 -5.20564 236.55C-9.52997 237.654 -14.0581 238.824 -18.527 237.95C-25.651 236.761 -27.0573 231.096 -25.0594 224.872C-23.8305 221.303 -21.6552 218.182 -19.8085 214.916C-18.9147 213.555 -18.4021 211.879 -17.0943 210.841C-16.7919 202.863 -18.7439 194.398 -15.3396 186.853C-14.2618 184.428 -12.6451 182.082 -10.1346 180.998C-6.92092 179.782 -3.16173 180.051 0.00594521 181.267C6.74218 184.468 6.95248 193.208 9.36438 199.347C11.6054 204.88 14.3591 210.69 19.3932 214.199C22.5346 216.453 26.1491 218.307 28.6727 221.29C35.0607 228.585 33.4242 244.404 21.6605 244.253ZM22.0284 241.854C30.4997 241.657 32.1361 231.582 28.8896 225.299C26.2345 220.107 20.2475 218.241 16.1861 214.423C12.5386 211.045 10.3764 206.622 8.36543 202.173C5.35549 196.192 5.53289 184.737 -2.11028 183.022C-4.94936 182.444 -8.301 182.227 -10.7655 184.008C-16.0953 188.858 -15.7142 196.843 -15.885 203.48C-15.8522 206.096 -16.2465 208.725 -16.2268 211.307C-16.1479 211.235 -16.0559 211.183 -15.9442 211.176C-15.9179 211.4 -16.0822 211.597 -16.2202 211.761C-16.2465 212.582 -16.516 213.338 -16.9037 213.995C-18.8622 217.722 -21.3791 221.165 -22.9958 225.069C-25.7758 232.535 -22.4701 235.834 -14.9124 235.854C-9.79944 235.591 -4.89673 233.941 -0.00721169 232.561C2.87787 231.641 6.07181 231.457 8.75974 233.041C13.3338 235.729 16.1071 241.88 22.0284 241.854Z" fill="#95A67C"/>
<path d="M-20.4388 256.667C-24.8551 255.865 -25.0128 248.57 -29.9746 249.267C-38.0449 251.646 -36.2968 252.98 -44.8798 248.912C-45.8196 248.695 -46.1941 247.88 -46.1876 246.954C-46.595 243.95 -46.1219 240.894 -45.2084 238.022C-43.2696 232.344 -38.9979 227.948 -35.8631 223.006C-33.2737 219.135 -31.5387 215.06 -30.244 210.663C-29.6854 208.508 -28.6274 206.497 -28.2397 204.302C-28.0556 199.767 -28.7588 195.226 -29.462 190.757C-30.4938 185.506 -31.2956 180.202 -30.0272 174.958C-26.9581 161.426 -16.351 153.205 -2.39215 156.82C2.95083 157.976 6.87423 161.86 10.9488 165.205C13.3936 167.19 16.1407 168.846 18.1386 171.33C20.3862 173.815 21.8057 176.851 23.5078 179.696C24.2899 180.879 25.5057 181.977 26.9975 182.023C27.9176 181.773 28.5485 180.971 29.232 180.347C31.7294 177.909 34.3647 175.464 37.8676 174.8C44.8272 173.854 43.5128 183.843 40.4963 187.32C38.5773 189.732 35.9945 191.572 34.0426 193.951C31.3481 197.362 29.2386 202.153 30.7239 206.471C31.8148 209.605 34.7327 211.537 36.9475 213.844C39.8326 216.729 43.1448 219.22 45.6947 222.427C50.7354 228.388 50.0979 237.714 44.9915 243.431C40.6869 248.196 34.3713 250.43 28.4762 252.573C20.373 255.668 14.5109 254.571 6.70996 251.278C4.37693 250.371 2.18186 249.109 -0.15118 248.248C-2.32649 247.801 -4.53465 248.557 -6.61795 249.142C-11.9215 250.351 -14.6752 257.258 -20.4388 256.667ZM-19.4003 254.334C-15.0169 253.539 -12.8087 248.86 -8.69471 247.401C-5.73076 246.277 -2.35931 245.127 0.795219 246.047C4.79753 247.933 8.81955 249.878 13.1045 251.055C19.867 253.401 26.5835 250.995 32.8728 248.373C38.781 246.001 45.2675 242.426 46.7593 235.709C49.5524 226.002 40.7329 220.771 34.8444 214.843C30.6055 211.077 27.359 207.351 28.4828 201.292C30.6121 189.061 40.7329 188.851 40.9958 180.018C41.3507 175.799 36.9672 177.127 34.713 178.606C33.4512 179.453 32.4457 180.36 31.3547 181.372C30.0469 182.509 28.8968 184.231 27.0501 184.441C25.3085 184.415 23.6853 183.357 22.6338 182.01C21.1485 180.124 20.2613 177.863 18.9469 175.865C16.6796 172.119 13.0979 169.635 9.68707 167.026C6.70998 164.647 3.85119 161.722 0.32206 160.224C-3.95628 158.449 -8.85238 157.97 -13.4002 158.837C-18.1648 160.059 -22.384 163.313 -24.9011 167.505C-32.0776 179.486 -27.0041 187.793 -26.3797 200.234C-25.6634 205.261 -27.2407 208.054 -29.3043 212.405C-29.8826 215.106 -30.7501 217.741 -31.9725 220.226C-36.0274 229.039 -45.6355 236.057 -44.2817 246.645C-42.0932 247.565 -39.9705 248.886 -37.5718 249.122C-32.7545 248.465 -28.6997 244.023 -24.5265 249.477C-23.0741 251.258 -22.0554 254.551 -19.2689 254.308C-19.2624 254.308 -19.4003 254.334 -19.4003 254.334Z" fill="#95A67C"/>
<path d="M43.1243 207.89C38.9512 206.569 41.6193 201.141 43.9655 199.241C46.1079 197.276 48.3359 195.206 51.2407 194.509C50.6755 195.982 49.6568 197.355 48.4344 198.38C46.3906 200.122 43.8275 201.739 42.96 204.413C42.5066 207.752 48.027 202.862 48.7236 202.001C50.1563 200.299 51.5298 198.341 51.819 196.08C52.0227 195.101 51.7139 194.049 51.8979 193.103C52.6865 192.104 53.0808 194.063 53.1662 194.621C53.5474 196.705 53.0808 198.867 52.0358 200.694C50.7215 203.329 46.3052 208.297 43.1243 207.89Z" fill="#95A67C"/>
<path d="M-28.7854 270.514C-37.4998 269.627 -41.2261 264.448 -47.1605 259.026C-50.4071 255.734 -54.3831 253.749 -57.5376 250.45C-60.3833 247.368 -61.7568 242.675 -60.5673 238.601C-59.7195 235.794 -57.9516 233.402 -56.2824 231.03C-53.003 226.127 -49.257 221.264 -47.5614 215.546C-46.2864 210.709 -44.9524 205.662 -44.7815 200.674C-44.8998 192.899 -47.1145 185.348 -48.0477 177.659C-49.0072 171.048 -49.3622 164.285 -47.7783 157.74C-46.4902 151.93 -44.7486 146.232 -43.0399 140.534C-41.4889 135.415 -39.754 130.256 -36.698 125.82C-32.3934 119.57 -26.058 115.074 -19.7358 111.033C-13.9788 107.504 -7.09801 106.406 -0.453781 106.045C4.27145 105.966 8.78638 107.674 12.953 109.751C15.3912 110.954 17.8557 112.301 19.5447 114.49C22.7715 118.334 25.1965 122.829 26.0312 127.817C26.9381 132.03 28.1342 136.256 28.1407 140.6C28.121 145.437 24.7693 150.096 26.5109 154.966C28.2393 159.08 33.326 159.935 37.0392 161.518C41.7972 163.102 46.3319 165.258 50.7285 167.663C53.7253 169.293 56.4329 171.357 58.9434 173.657C62.2622 176.47 65.8045 179.512 66.902 183.916C67.2832 185.46 68.2033 188.089 66.35 188.95C66.764 194.68 66.8823 200.805 63.5438 205.774C61.1713 209.848 57.6225 213.023 54.7111 216.683C53.607 218.261 53.4887 220.574 54.2248 222.329C54.6191 223.104 55.434 223.531 56.1964 223.873C59.7321 225.181 63.4386 222.539 66.994 223.669C71.3118 225.089 69.9317 230.668 68.1967 233.678C67.0137 236.024 65.1473 237.943 62.9852 239.409C54.6848 243.457 53.3376 253.138 47.5477 259.513C44.4063 263.002 39.3788 263.581 35.0873 264.849C32.7148 265.434 30.3358 266.137 27.891 266.354C25.4857 266.518 23.0738 266.301 20.6619 266.341C17.7965 266.315 14.9377 266.558 12.079 266.453C9.95621 266.374 7.95832 265.638 5.97359 264.928C3.60113 264.133 1.06435 263.85 -1.43299 263.962C-10.9623 264.356 -19.0984 271.355 -28.7854 270.514ZM-25.9464 268.148C-18.5201 267.497 -12.0598 263.173 -4.77809 261.905C-1.41325 261.287 2.10274 261.353 5.415 262.246C7.32086 262.792 9.14124 263.666 11.1194 263.922C16.2849 264.185 21.4768 263.745 26.6555 263.975C31.5516 263.64 36.2834 262.016 40.9889 260.709C47.8434 258.934 50.0582 251.62 53.285 246.145C54.8885 243.398 56.801 240.697 59.456 238.877C61.6511 237.543 63.9381 236.169 65.476 234.059C66.8101 232.127 69.9711 226.758 66.1989 225.884C62.8275 225.371 59.4363 227.455 56.0912 226.305C50.7088 224.793 50.7877 217.163 54.2773 213.772C60.1264 207.364 65.3379 202.1 65.121 192.794C65.0685 190.33 65.6731 187.8 65.2722 185.368C64.5756 181.76 61.9337 179.059 59.2129 176.778C56.2424 174.11 53.1864 171.481 49.6244 169.641C45.5236 167.44 41.3372 165.409 36.9143 163.943C30.9535 161.788 24.0596 159.862 24.1187 152.232C23.8361 147.408 26.9315 143.051 26.1166 138.214C25.42 133.338 24.3882 128.757 23.087 124.137C21.6346 120.542 19.4395 117.21 16.6464 114.549C11.9475 111.348 6.45337 108.871 0.735779 108.443C-5.49442 108.542 -12.0532 109.547 -17.5934 112.465C-24.0076 116.297 -30.3626 120.772 -34.8381 126.845C-38.5447 131.991 -40.2468 138.181 -42.0607 144.175C-43.2699 148.223 -44.4858 152.324 -45.4518 156.412C-47.9032 165.041 -46.8583 173.939 -45.3138 182.614C-42.6128 197.322 -41.5021 201.581 -45.7279 216.381C-47.9755 224.136 -53.6865 230.294 -57.7348 237.102C-60.2585 241.131 -58.8914 246.546 -55.382 249.543C-53.1278 251.745 -50.3085 253.092 -48.0675 255.293C-44.5317 258.178 -41.5547 261.694 -37.9927 264.534C-34.5556 267.005 -30.2115 268.464 -25.9464 268.148Z" fill="#95A67C"/>
<path d="M-15.28 282.876C-18.4148 282.632 -21.438 281.62 -24.2573 280.253C-26.3603 279.235 -28.3911 277.999 -30.6781 277.427C-34.9302 276.284 -39.2742 277.644 -43.4014 278.709C-46.5428 279.524 -49.6645 280.431 -52.7993 281.292C-57.4654 282.626 -62.3286 281.587 -66.8172 280.069C-78.351 276.087 -87.8408 270.632 -90.1279 257.679C-90.9888 251.83 -92.0863 245.915 -91.922 239.981C-91.9811 235.676 -90.0293 231.7 -87.1573 228.585C-80.592 221.395 -78.3641 218.07 -76.1231 208.488C-72.962 195.955 -71.7462 182.969 -66.9092 170.909C-63.2421 160.69 -58.5957 150.878 -55.6383 140.455C-52.7467 131.721 -50.3085 121.416 -55.2243 112.965C-55.0403 113.628 -54.6394 114.266 -54.5737 114.93C-55.0732 114.391 -55.336 113.694 -55.6054 113.024C-55.6777 112.781 -55.8092 112.478 -55.5792 112.327C-57.2156 109.587 -57.3011 106.301 -57.0447 103.205C-56.8673 99.0255 -55.0994 94.0309 -50.5451 93.0319C-46.4836 92.5719 -43.9403 96.7254 -40.3717 97.9083C-37.5064 99.2687 -34.8513 97.7637 -33.0966 95.4438C-28.6671 89.9168 -28.0625 83.4303 -20.3076 81.0644C-17.1531 79.9603 -13.8671 79.2703 -10.6271 78.4554C-5.317 77.1673 0.117981 75.9055 5.62527 76.1289C12.8544 76.3392 20.123 78.8628 25.3608 83.9561C28.5219 87.0055 30.5724 90.9881 32.5308 94.8721C35.5079 101.201 36.6777 108.187 37.5649 115.074C38.8004 123.802 39.1488 132.641 39.8322 141.375C40.8509 152.626 45.8915 150.628 53.1667 156.609C58.319 160.716 63.3138 165.277 66.7969 170.923C69.6492 175.852 72.5539 180.971 73.6712 186.61C74.5649 193.616 73.4543 200.924 70.6546 207.397C69.1562 210.801 66.626 213.607 65.0225 216.946C71.8638 214.389 76.8914 219.384 78.6133 225.706C79.7568 229.695 80.7754 233.901 80.0656 238.062C78.7513 245.718 73.3688 251.652 68.9722 257.758C66.0214 261.78 63.1626 265.913 59.5283 269.357C52.4964 276.106 43.9331 281.371 33.8978 281.18C29.1397 281.423 24.7299 279.438 20.1427 278.525C16.0418 277.684 11.8949 277.46 7.72833 277.309C5.231 277.257 2.58247 277.046 0.216568 277.947C-1.98503 278.959 -3.8252 280.391 -6.05966 281.311C-8.95789 282.534 -12.1321 283.204 -15.28 282.876ZM-15.267 280.713C-11.797 281.009 -8.34669 279.958 -5.31703 278.308C-3.73319 277.473 -2.28732 276.343 -0.58519 275.745C1.70842 274.943 4.16632 275.048 6.55851 275.094C10.9354 275.226 15.3321 275.449 19.6367 276.284C23.777 276.954 27.6807 278.84 31.9064 278.959C41.9286 279.504 49.9596 274.956 57.0967 268.325C62.742 263.133 66.7509 256.483 71.3973 250.43C78.4556 241.249 80.0788 234.145 75.5244 223.255C73.8617 219.476 70.6217 217.583 66.5734 218.852C65.6994 219.174 64.8779 219.601 64.063 220.041C63.3861 220.324 62.604 219.765 62.4134 219.108C61.7891 215.421 66.1528 211.189 67.7038 207.975C70.0105 203.835 71.1015 199.149 71.6273 194.47C72.5079 187.241 70.7795 182.246 67.4147 175.996C65.8703 173.131 64.2799 170.252 62.1768 167.748C60.2513 165.494 58.1088 163.424 55.9467 161.42C53.0221 158.778 49.7098 156.287 46.2727 154.414C42.9604 152.961 40.082 150.661 38.9451 147.106C37.7818 143.905 37.578 140.475 37.348 137.11C37.1114 132.694 36.8617 128.271 36.4214 123.867C35.2121 112.577 34.3578 100.675 28.1473 90.8304C26.1889 87.2158 23.2972 84.1467 19.7418 82.0634C7.95829 75.0577 -5.99388 79.4675 -18.2374 82.7994C-20.6164 83.5289 -23.0218 84.7053 -24.7043 86.5651C-27.9771 90.7055 -29.4163 96.3048 -33.8589 99.4987C-36.882 101.562 -40.7069 100.333 -43.5328 98.5129C-45.4189 97.284 -47.0357 95.4899 -49.3161 95.1416C-49.2636 95.1416 -49.2176 95.1416 -49.165 95.1416C-55.5595 95.7593 -56.0327 107.398 -53.7128 111.828C-52.2538 114.594 -50.6305 117.236 -49.0335 119.859C-50.2625 118.617 -51.4849 117.368 -52.6612 116.073C-49.2307 123.651 -50.5977 132.174 -53.0818 139.811C-55.8486 150.096 -60.2781 159.875 -64.0307 169.805C-66.068 175.267 -67.9542 180.787 -69.1963 186.492C-71.1481 194.904 -72.2325 203.46 -74.6049 211.767C-75.3476 214.363 -76.0968 216.972 -77.2271 219.43C-78.719 222.328 -80.7497 224.931 -82.8922 227.376C-85.1463 229.985 -87.6634 232.489 -88.9384 235.755C-90.049 239.06 -89.865 242.701 -89.5495 246.125C-89.0172 250.43 -88.6097 254.754 -87.7291 259.006C-85.2909 269.916 -76.9577 274.266 -67.2378 277.763C-63.4261 279.064 -59.3778 280.234 -55.3295 279.498C-51.176 278.597 -47.1343 277.204 -42.9939 276.218C-38.9325 275.134 -34.595 274.148 -30.4481 275.351C-25.2957 276.889 -20.84 280.602 -15.267 280.713Z" fill="#95A67C"/>
<path d="M-72.5157 315.9C-83.8326 315.492 -96.1681 311.45 -102.661 301.612C-112.158 286.937 -110.449 268.036 -106.644 251.751C-105.231 246.369 -103.115 241.203 -100.92 236.097C-97.1539 226.935 -93.5393 217.689 -89.2544 208.744C-86.527 203.559 -83.2016 198.709 -80.4743 193.524C-76.702 186.281 -73.4752 178.71 -71.4379 170.791C-70.3995 166.953 -69.164 163.174 -67.5538 159.533C-66.246 156.55 -65.1419 153.395 -64.9908 150.122C-64.9448 148.69 -64.9645 147.257 -64.9973 145.824C-65.4179 145.088 -65.7663 144.306 -66.0094 143.491C-67.3304 136.538 -64.1036 130.906 -68.7762 124.354C-71.9176 119.142 -75.4008 113.852 -76.2946 107.72C-76.7743 103.856 -76.3274 99.9457 -75.9265 96.1011C-75.6045 92.9663 -74.8815 89.8644 -73.3766 87.0779C-68.3622 77.2528 -61.2054 70.8057 -52.445 64.3784C-47.9169 60.777 -43.0536 57.6158 -37.7172 55.3551C-33.8003 53.5675 -29.7783 52.01 -25.8746 50.1895C-23.0355 48.8752 -20.3213 47.2716 -17.3574 46.2398C-12.2444 44.5114 -6.7831 44.1039 -1.4204 43.8542C5.64443 43.7096 13.0576 44.5114 19.2549 48.1523C23.7501 50.6956 27.1807 54.6585 30.1972 58.7725C36.9926 67.6446 40.594 78.3569 43.6697 88.9706C46.075 97.4155 48.9009 105.716 51.9306 113.957C55.7291 125.451 57.1487 130.716 65.9551 139.496C71.8765 146.62 73.7429 156.057 76.9763 164.528C79.4276 171.547 82.8385 178.198 85.2635 185.223C87.0774 190.494 87.7805 196.06 89.3906 201.39C92.6043 211.34 98.9725 211.84 100.083 224.602C100.589 230.576 100.123 236.596 99.8204 242.563C99.3078 250.739 98.3942 259.052 95.1674 266.656C91.4871 276.1 82.3784 281.469 73.8217 285.905C68.8008 288.613 64.1084 291.879 59.3898 295.073C54.7171 298.399 49.8079 301.711 44.0048 302.565C35.4548 303.945 26.7207 303.577 18.1509 304.852C12.453 305.555 6.80106 306.594 1.08347 307.113C-7.69665 307.875 -16.5293 307.915 -25.3028 308.756C-34.1224 309.676 -42.9222 310.846 -51.6169 312.601C-58.5503 313.915 -65.4114 316.031 -72.5157 315.9ZM-74.0535 313.672C-64.0444 314.04 -54.5086 310.307 -44.677 309.025C-37.6384 307.921 -30.5604 306.975 -23.4561 306.351C-16.7659 305.838 -10.0559 305.687 -3.36567 305.22C6.70254 304.642 16.5801 302.361 26.6549 301.77C35.7965 301.08 45.8187 301.737 53.613 296.112C59.1072 292.418 64.4896 288.547 70.2137 285.202C75.9708 281.949 81.9906 279.136 86.8539 274.588C95.6931 266.104 96.9089 253.026 97.6976 241.433C97.9867 235.144 98.5191 228.979 97.7502 222.756C96.6395 213.174 90.3633 210.814 87.636 202.527C85.3555 195.436 84.6129 187.898 81.5635 181.043C79.5656 176.239 77.4034 171.494 75.6027 166.611C73.434 160.927 71.7778 155.078 69.458 149.452C68.3473 146.817 67.1578 144.181 65.4228 141.894C62.7348 138.516 59.3766 135.677 57.1224 131.964C53.981 126.983 52.2592 121.298 50.4059 115.758C47.6391 107.885 44.708 100.064 42.4473 92.02C39.3059 81.3143 36.0988 70.2865 29.5203 61.1187C25.7545 55.7757 21.3054 50.643 15.0358 48.2968C8.13522 45.7403 0.538033 45.6878 -6.68453 46.437C-9.53676 46.7327 -12.389 47.1533 -15.1492 47.9485C-17.9094 48.7832 -20.4527 50.1501 -23.0224 51.4317C-31.257 55.4931 -40.3131 58.135 -47.6737 63.7935C-52.8393 67.6972 -58.1428 71.4958 -62.6774 76.129C-66.7718 80.5125 -70.2812 85.5006 -72.5748 91.0473C-73.8169 94.8064 -73.9878 98.8153 -74.2769 102.739C-74.7238 107.563 -73.4028 112.386 -71.0632 116.566C-63.4792 129.874 -63.5976 126.812 -64.2087 142.302C-64.3665 144.852 -63.7684 147.375 -63.7421 149.925C-63.4266 157.312 -67.7313 163.779 -69.2034 170.844C-71.2407 179.381 -74.645 187.543 -78.7393 195.285C-81.2629 199.977 -84.1874 204.433 -86.7636 209.092C-92.6126 221.198 -97.4759 233.783 -102.49 246.25C-107.958 262.213 -110.547 284.085 -101.886 299.246C-96.3126 308.979 -84.7395 313.074 -74.0535 313.672Z" fill="#95A67C"/>
<path d="M-94.1503 323.346C-116.817 320.96 -119.071 304.169 -119.288 284.979C-119.551 278.256 -119.827 271.487 -119.137 264.783C-118.506 259.546 -117.382 254.36 -115.91 249.293C-114.083 243.451 -111.113 238.062 -108.221 232.699C-105.908 228.552 -103.686 224.353 -101.701 220.042C-99.7562 215.993 -98.2644 211.708 -95.9182 207.864C-94.0649 204.814 -91.6267 202.186 -89.5829 199.274C-87.7033 196.402 -86.6386 193.097 -85.3045 189.949C-83.7404 185.92 -81.8806 182.01 -79.8367 178.198C-77.9374 174.084 -76.0447 169.957 -74.2308 165.803C-73.2122 162.859 -73.1596 159.711 -72.6338 156.662C-71.188 149.157 -71.0697 141.244 -73.2187 133.864C-76.0907 134.646 -79.1795 127.134 -79.8695 124.979C-81.9725 119.419 -80.9079 113.511 -80.3822 107.78C-80.185 103.363 -80.4347 98.9406 -80.6187 94.5242C-81.6702 78.8699 -82.1237 63.8332 -69.039 52.7332C-64.156 48.5075 -58.6684 45.0638 -53.3189 41.4689C-45.6494 36.2968 -36.9745 32.7545 -27.8198 31.3284C-20.0715 30.2375 -12.3297 28.279 -4.46309 28.5945C-0.132179 28.8245 4.16589 29.6854 8.28649 30.9998C12.6503 32.4917 16.5868 34.9693 20.4774 37.3943C25.1698 40.2926 29.481 43.7428 33.3781 47.64C35.7506 50.019 38.1757 52.4178 39.9829 55.2766C46.3117 66.048 49.3413 78.4295 51.6941 90.6008C53.2319 97.6459 54.106 107.011 59.219 112.446C64.8315 117.881 69.5172 124.236 72.514 131.478C74.2622 135.967 75.1428 140.764 76.26 145.437C77.397 150.103 78.3827 154.828 80.0323 159.343C82.4311 164.91 85.4673 170.167 87.9713 175.681C91.2244 182.582 93.7151 189.85 97.5794 196.448C102.876 205.445 108.042 208.206 109.534 219.713C110.119 224.123 110.717 228.579 110.506 233.034C110.211 237.766 109.258 242.426 108.712 247.131C107.01 260.407 103.501 274.793 93.1499 284.039C89.9888 286.924 86.2953 289.119 82.9042 291.709C79.27 294.436 75.9775 297.545 72.2052 300.075C68.4066 302.723 64.0757 304.399 59.8499 306.213C55.6636 308.099 51.4181 309.959 46.936 311.017C43.2952 311.832 39.5426 311.72 35.836 311.747C29.0472 312.187 22.2847 311.852 15.5879 312.903C11.5922 313.33 7.58324 314.119 3.55465 313.744C-3.70735 312.897 -11.3899 309.552 -18.4942 312.699C-21.6093 313.856 -24.455 315.703 -27.7409 316.386C-32.867 317.688 -38.21 317.412 -43.415 318.22C-47.8839 318.871 -52.3397 319.804 -56.8677 319.804C-61.6324 319.718 -66.3577 319.002 -71.1157 318.785C-79.1072 318.47 -86.08 324.069 -94.1503 323.346ZM-95.0113 321.138C-87.2038 321.933 -80.4675 316.708 -72.7784 316.583C-67.5471 316.643 -62.3685 317.543 -57.1372 317.615C-52.8457 317.55 -48.6134 316.741 -44.3811 316.084C-38.854 315.171 -33.1299 315.571 -27.708 313.994C-25.0333 313.304 -22.687 311.786 -20.1174 310.82C-10.8313 306.298 -1.03251 312.68 8.5428 311.477C13.9187 310.971 19.255 309.893 24.6703 309.92C28.7055 309.992 32.7144 309.571 36.7495 309.552C39.766 309.545 42.8154 309.565 45.7794 308.934C50.1168 307.961 54.2112 306.16 58.2464 304.353C61.7361 302.815 65.3243 301.488 68.6168 299.542C74.1833 296.237 78.7311 291.544 84.0609 287.904C89.7391 284.164 95.1609 279.754 98.5126 273.721C101.739 267.82 103.934 261.366 105.275 254.774C106.34 249.057 106.931 243.26 107.805 237.516C108.745 232.18 108.371 226.758 107.641 221.422C107.22 217.689 106.399 213.976 104.789 210.565C102.679 206.392 99.2224 203.073 96.8565 199.038C93.8794 194.326 91.6515 189.206 89.4893 184.087C87.1431 178.402 84.4947 172.842 81.695 167.368C79.9469 163.93 78.0936 160.513 77.029 156.787C71.7714 138.536 73.0397 128.79 58.2595 114.214C52.3973 108.496 51.4312 99.3611 49.7948 91.6983C47.6392 80.1448 44.8199 68.4533 39.3192 58.004C36.7298 53.1473 32.5106 49.4538 28.5478 45.7341C23.2376 41.1206 17.1915 37.3418 10.9021 34.2069C3.04865 30.783 -5.75118 30.014 -14.1501 31.4533C-36.5144 34.5815 -42.1861 36.1654 -60.7715 49.3947C-70.2022 55.5855 -77.4313 63.945 -78.45 75.551C-79.7315 86.5262 -77.6942 97.4224 -78.2002 108.398C-78.3054 111.736 -79.1598 115.029 -78.9626 118.38C-78.7194 123.23 -77.1422 128.317 -73.7971 131.925C-73.8168 131.728 -73.5671 131.623 -73.4291 131.761C-73.2056 131.971 -72.9822 132.109 -72.7521 132.28C-72.6601 132.372 -72.7127 132.543 -72.8572 132.497C-72.9755 132.457 -73.061 132.379 -73.1464 132.333C-71.2997 136.138 -70.2548 140.245 -69.9459 144.458C-69.6239 147.435 -69.4662 150.425 -69.9525 153.389C-70.6754 157.635 -70.8331 161.985 -71.9175 166.158C-73.3305 170.108 -75.3875 173.828 -76.9976 177.705C-78.8837 181.675 -81.0722 185.5 -82.6494 189.614C-84.2793 193.353 -85.4754 197.342 -87.7165 200.779C-89.8326 203.75 -92.4416 206.668 -94.3015 209.77C-97.8898 216.513 -100.466 223.755 -104.278 230.399C-107.347 236.064 -110.607 241.676 -112.926 247.703C-115.115 253.946 -116.508 260.512 -117.132 267.09C-117.547 272.348 -117.402 277.645 -117.224 282.909C-116.692 300.679 -117.067 318.542 -95.0113 321.138Z" fill="#95A67C"/>
<path d="M-82.826 335.675C-89.3191 335.609 -95.8517 333.545 -102.259 332.967C-106.34 332.481 -110.698 332.317 -114.174 329.859C-116.842 328.111 -118.558 325.232 -120.017 322.465C-121.791 318.811 -123.25 315.006 -124.564 311.161C-126.359 305.753 -128.159 300.305 -129.316 294.718C-131.577 283.408 -127.384 272.256 -124.61 261.432C-123.303 256.2 -122.967 250.798 -121.298 245.672C-118.058 236.662 -114.115 227.915 -109.981 219.286C-107.208 214.1 -104.927 208.685 -102.608 203.29C-100.215 197.828 -97.6392 192.255 -94.6292 187.142C-91.2184 181.162 -87.1241 175.569 -84.1667 169.332C-82.2346 165.291 -80.7887 161.072 -79.6978 156.734C-78.896 153.395 -77.7065 150.07 -77.483 146.633C-77.2793 143.452 -77.7262 140.33 -78.298 137.222C-78.3308 137.084 -78.344 136.913 -78.2848 136.782C-78.2519 136.709 -78.1862 136.69 -78.1205 136.703C-80.0001 132.806 -81.2751 128.672 -82.1031 124.433C-82.7932 121.456 -83.7987 118.577 -84.6005 115.627C-88.6225 102.384 -91.5668 88.5173 -90.0158 74.6242C-89.3586 68.1574 -88.2347 61.5723 -85.1196 55.789C-80.9267 47.2915 -78.3177 42.9934 -70.0896 37.6965C-60.3894 30.9668 -49.5392 25.867 -38.0909 22.9556C-34.6932 22.1407 -31.3151 21.2338 -28.0095 20.0771C-24.4869 18.8876 -21.0367 17.3432 -17.317 16.8897C-12.8678 16.2719 -8.37254 16.5874 -3.89706 16.7583C-1.53116 16.8437 0.8479 16.916 3.17436 17.376C7.57098 18.145 11.4879 20.5109 15.2536 22.7979C22.4433 27.6414 29.2255 33.3656 34.5685 40.2201C37.9531 44.6561 40.4175 49.7034 43.066 54.5929C47.8175 63.3402 52.3784 72.232 54.8232 81.9388C56.5385 88.2675 59.141 94.3926 63.5967 99.2952C67.8751 103.988 72.4361 108.667 74.3485 114.89C78.364 125.892 81.111 137.307 84.9162 148.381C88.0838 157.825 91.0938 167.4 95.6087 176.305C99.519 183.521 105.526 189.239 110.31 195.837C116.599 204.814 118.722 216.105 118.795 226.903C118.808 234.487 118.755 242.182 118.348 249.734C118.111 254.492 118.367 259.296 117.598 264.014C116.573 271.914 111.526 278.44 106.334 284.157C99.5124 291.787 94.9712 301.29 87.0323 307.935C76.6223 316.997 72.1271 317.214 58.8518 317.793C54.6721 318.121 50.4529 318.588 46.3257 319.278C41.2456 320.329 36.1326 321.033 30.9342 320.678C23.9548 320.618 16.8966 320.139 9.98946 320.671C2.79318 321.348 -4.30451 322.925 -11.5336 323.28C-15.6082 323.438 -19.6828 323.313 -23.7574 323.136C-28.8507 322.741 -34.0688 322.169 -39.1161 323.195C-47.8239 324.588 -55.9337 328.156 -64.1092 331.291C-70.1159 333.539 -76.3067 335.859 -82.826 335.675ZM-86.1974 333.368C-74.0985 334.531 -63.2614 327.854 -52.1285 324.22C-46.7987 322.36 -41.2651 321.006 -35.6396 320.5C-31.7687 320.106 -27.9044 320.776 -24.0401 320.954C-19.2228 321.151 -14.3859 321.341 -9.57522 320.921C-4.75142 320.513 0.0263977 319.652 4.81735 319.008C14.9513 317.517 25.2101 318.627 35.4032 318.548C41.7911 318.226 47.9687 316.366 54.3566 315.952C59.6865 315.322 65.0755 315.453 70.3856 314.684C73.6059 313.994 76.6815 312.634 79.4155 310.8C84.4298 307.389 88.9119 303.229 92.6382 298.491C95.1815 295.343 97.2385 291.833 99.6635 288.6C103.732 282.922 109.114 278.223 112.459 272.072C116.015 265.802 116.008 258.494 116.08 251.488C116.514 242.347 116.731 233.225 116.56 224.077C116.238 214.83 114.247 205.334 109.107 197.526C104.744 191.316 99.2233 185.986 95.2144 179.512C89.3194 169.497 86.1583 158.14 82.386 147.211C78.3968 135.632 75.7746 123.579 71.0954 112.242C68.9069 107.28 64.6745 103.712 61.2966 99.591C56.9985 94.5832 54.4618 88.445 52.7334 82.1359C50.0783 71.4697 44.7222 61.8483 39.5566 52.2336C37.3879 48.2116 35.206 44.1041 32.3472 40.5421C27.8323 34.956 22.3052 30.2439 16.5285 26.0378C12.4079 23.2645 8.05734 20.4451 3.12839 19.5251C0.361603 18.9993 -2.47751 19.0322 -5.28372 18.8942C-9.47005 18.6904 -13.6892 18.5393 -17.8427 19.2556C-21.0104 19.8931 -23.994 21.2009 -27.05 22.213C-30.6186 23.5011 -34.312 24.3949 -37.9857 25.3149C-51.307 28.9032 -63.9383 35.2846 -74.5191 44.1107C-77.8248 46.93 -79.8949 50.7549 -81.8271 54.5798C-83.2006 57.1888 -84.6465 59.8045 -85.4745 62.6501C-89.5097 76.2212 -88.8065 90.7846 -85.56 104.441C-84.0944 110.165 -82.458 115.85 -80.7493 121.508C-79.7964 124.748 -79.3364 128.061 -78.2454 131.248C-77.4436 133.469 -76.3659 135.572 -75.5509 137.787C-74.6177 140.002 -74.1905 142.44 -74.8543 144.793C-75.8532 142.664 -76.885 140.232 -77.6014 138.05C-77.608 138.057 -77.6145 138.057 -77.621 138.063C-76.5958 141.737 -75.9649 145.562 -76.3264 149.38C-77.1939 154.598 -78.4425 159.764 -80.0067 164.818C-82.55 172.993 -87.7221 180.156 -92.0333 187.405C-95.3653 193.005 -98.1387 198.9 -100.728 204.867C-103.206 210.847 -105.946 216.716 -108.904 222.48C-112.61 230.425 -116.231 238.423 -119.189 246.678C-120.733 251.35 -121.081 256.305 -122.205 261.083C-124.689 271.789 -129.145 282.56 -127.384 293.746C-126.083 300.495 -123.842 307.028 -121.614 313.514C-119.576 318.529 -117.881 324.318 -113.622 327.894C-111.283 329.615 -108.667 330.108 -105.894 330.417C-99.2559 330.982 -92.7694 332.455 -86.1974 333.368Z" fill="#95A67C"/>
<path d="M-70.8002 303.538C-79.2977 303.17 -86.1917 297.794 -92.6979 292.865C-99.3618 288.567 -100.9 280.306 -102.201 273.031C-103.128 268.155 -102.983 263.232 -102.069 258.376C-101.498 254.932 -101.485 251.39 -100.67 247.992C-99.0267 243.733 -96.3124 239.81 -94.1437 235.821C-91.0877 230.622 -88.4327 225.2 -86.0996 219.647C-84.0492 215.31 -82.6428 210.742 -81.2036 206.181C-80.0075 202.639 -78.4368 199.235 -76.9778 195.791C-75.5451 192.479 -74.5659 188.95 -73.2975 185.585C-71.6742 181.379 -69.6369 177.33 -68.3686 172.986C-64.754 162.149 -63.5316 150.793 -62.1252 139.529C-61.2971 133.443 -60.9226 127.298 -62.237 121.278C-63.0125 117.637 -64.432 114.167 -65.2864 110.553C-67.0542 103.659 -65.398 96.9818 -62.5064 90.6596C-60.4953 86.1316 -57.1897 82.5038 -51.8073 83.5225C-48.4227 83.5028 -44.887 82.517 -42.186 80.4402C-38.5977 77.6932 -36.2843 73.6909 -33.0246 70.6481C-26.249 65.8111 -18.5204 62.4463 -10.6604 59.7912C-5.42912 57.9248 0.0913696 57.0507 5.50665 55.8941C12.8541 54.9608 19.8466 59.3575 24.309 64.9042C27.5095 68.9854 29.3496 73.8354 31.2949 78.5935C35.5207 88.0374 39.2469 97.6916 42.7629 107.425C45.0105 114.056 47.4488 120.621 49.7818 127.219C51.8322 133.279 52.7129 139.805 56.1763 145.305C58.3253 149.045 60.7832 152.594 62.9782 156.3C64.871 159.527 66.5271 162.885 68.4789 166.079C72.4418 172.559 76.3127 179.184 78.6918 186.433C79.8879 189.988 79.5133 193.787 79.7762 197.473C80.0127 202.054 81.0576 206.957 78.672 211.169C78.6852 211.196 78.6852 211.228 78.6786 211.261C78.6655 211.307 78.6326 211.334 78.5932 211.34C78.5472 211.432 78.5078 211.518 78.4618 211.61C78.3698 211.787 78.2843 211.971 78.1923 212.149C79.9601 214.922 81.7871 217.728 82.8452 220.863C83.3118 222.138 83.463 223.525 84.0676 224.747C85.8091 227.448 87.6559 229.939 88.5956 233.041C90.3898 239.79 88.7731 246.96 86.6635 253.453C84.1793 259.493 78.9021 263.646 74.7552 268.496C72.3236 271.309 70.3059 274.51 67.4734 276.948C64.0692 279.813 60.1458 281.962 56.5903 284.624C53.9878 286.503 51.7073 288.758 49.0588 290.558C47.2515 291.708 45.1026 292.122 43.0258 292.49C37.9194 293.273 32.7145 292.293 27.6081 293.062C24.079 293.371 20.6615 294.298 17.1718 294.87C10.7708 295.803 4.33678 296.499 -2.11029 297.019C-8.67566 297.459 -15.2607 297.617 -21.7932 298.451C-26.9522 299.003 -32.052 300.029 -37.2307 300.456C-43.5003 301.198 -49.8291 300.909 -56.1119 301.402C-61.1197 301.816 -65.8187 303.505 -70.8002 303.538ZM-70.4387 301.356C-65.5163 300.949 -60.8634 299.503 -55.941 299.141C-49.5334 298.78 -43.0928 298.951 -36.7115 298.156C-28.8843 297.301 -21.1294 295.816 -13.2497 295.435C-2.53086 294.902 8.234 294.12 18.8083 292.267C23.2969 291.301 27.8775 290.499 32.4844 290.565C38.064 290.539 44.544 291.36 49.1312 287.542C51.8388 285.327 54.5005 283.047 57.4118 281.095C60.2115 279.143 63.1754 277.428 65.7845 275.219C67.8481 273.504 69.353 271.316 71.0223 269.272C72.8887 266.88 74.9326 264.619 77.0554 262.45C79.9996 259.42 82.9635 256.2 84.6065 252.257C86.5058 246.395 87.9385 240.066 86.7424 233.915C85.842 229.61 82.1815 226.495 81.6426 222.085C79.4541 220.626 77.6205 218.661 76.431 216.309C75.9447 215.296 75.0903 214.298 75.0443 213.147C75.7146 211.531 76.7201 210.032 77.3313 208.37C78.6457 204.834 77.7322 201.016 77.6008 197.362C77.3576 194.529 77.5745 191.67 77.1408 188.858C76.6742 186.268 75.5964 183.85 74.5909 181.438C72.0804 175.589 68.6104 170.239 65.4032 164.765C63.5565 161.492 61.861 158.134 59.85 154.953C57.1686 150.589 54.1521 146.383 52.082 141.678C50.5376 138.116 49.7489 134.297 48.6711 130.578C47.0018 124.939 44.7477 119.497 42.8549 113.931C39.2667 103.541 35.4615 93.2095 31.0714 83.1282C26.9245 73.934 24.6638 64.3784 14.7402 59.5809C10.9416 57.6619 6.62385 57.6291 2.60182 58.8252C-6.67776 60.5799 -15.7996 63.5504 -24.1329 68.0193C-26.6236 69.3994 -29.1538 70.7467 -31.4343 72.4554C-35.6666 76.5037 -38.6897 82.4316 -44.5387 84.436C-46.7337 85.2378 -49.0339 85.7964 -51.3867 85.7307C-52.6485 85.6781 -54.0812 85.4218 -55.2707 85.8884C-59.8448 88.0703 -61.2314 93.6301 -62.7824 98.0399C-65.8121 107.195 -61.7178 113.655 -59.9105 122.31C-58.7144 128.593 -59.2402 134.994 -60.1011 141.283C-61.4089 151.693 -62.5852 162.221 -65.7266 172.27C-67.133 177.252 -69.2952 181.95 -71.2471 186.728C-72.9689 191.716 -74.6513 196.704 -76.8858 201.495C-78.5485 205.255 -79.7709 209.171 -80.9801 213.088C-82.5443 217.8 -84.7261 222.276 -86.6977 226.824C-88.965 231.72 -91.7384 236.373 -94.4197 241.052C-95.8656 243.983 -97.9949 246.651 -98.7769 249.865C-99.375 254.413 -99.835 258.974 -100.519 263.515C-100.992 267.09 -100.459 270.698 -99.8745 274.227C-99.007 278.788 -98.0474 283.513 -95.5698 287.502C-94.2489 289.428 -92.2575 290.749 -90.4371 292.162C-84.5355 296.578 -78.1542 301.369 -70.4387 301.356ZM81.6228 221.967C80.9262 218.681 79.4672 215.638 77.9031 212.687C77.7125 213.055 77.5219 213.417 77.3313 213.778C78.7114 216.539 80.5056 219.082 81.6228 221.967Z" fill="#95A67C"/>
<path d="M-83.3199 359.998C-97.5219 360.09 -111.494 355.923 -123.783 348.904C-132.498 343.443 -140.522 336.51 -146.43 328.052C-150.387 322.354 -153.83 316.196 -155.381 309.381C-157.169 303.104 -157.918 296.447 -155.835 290.145C-153.35 280.162 -147.469 271.421 -142.165 262.772C-137.065 254.295 -133.162 245.193 -128.206 236.642C-125.775 232.693 -122.962 228.993 -119.939 225.477C-117.921 223.006 -115.647 220.712 -113.985 217.972C-110.955 212.359 -108.49 206.411 -106.42 200.385C-105.27 196.823 -104.442 193.162 -103.213 189.627C-101.721 185.145 -99.7103 180.742 -97.9753 176.378C-96.9633 173.532 -96.03 170.66 -94.9917 167.828C-93.4998 163.661 -91.5874 159.626 -90.5819 155.308C-89.0572 149.058 -88.2291 142.867 -87.9202 136.466C-87.7099 133.049 -88.7746 129.724 -89.7998 126.503C-91.9094 119.655 -95.34 113.399 -98.2776 106.899C-102.687 96.4301 -106.473 85.3629 -105.802 73.8489C-104.33 53.0093 -94.8996 32.518 -79.2058 18.592C-75.9987 15.891 -72.6734 13.2885 -69.1245 11.0475C-66.2 9.33217 -63.1375 7.86663 -60.1013 6.36165C-56.7693 4.76467 -53.4702 3.0231 -49.9147 1.95845C-45.1041 0.591482 -40.0502 0.624349 -35.1016 0.302324C-29.4497 0.00658629 -23.765 -0.243152 -18.1329 0.420614C-4.50922 2.03074 6.43312 11.0212 17.8289 17.8428C23.7568 21.4705 29.494 25.5583 34.2192 30.6844C39.1482 36.2903 44.1954 41.8567 48.4278 48.0212C54.3294 56.9459 57.4905 67.2835 61.2103 77.2269C63.1621 82.1427 64.4108 87.282 66.0538 92.3029C69.2477 96.5024 72.5205 100.676 75.1821 105.25C78.0935 110.56 81.3926 115.614 84.718 120.661C87.4914 125.281 89.1738 130.44 91.1388 135.428C92.7884 139.641 94.1947 143.952 95.1543 148.375C96.0217 152.423 96.3043 156.603 97.7765 160.507C99.3209 164.548 102.035 167.979 104.112 171.745C106.484 175.964 108.206 180.525 110.782 184.632C114.338 190.356 118.623 195.594 122.132 201.345C125.983 207.443 127.127 214.718 126.989 221.823C126.962 228.243 126.318 234.664 126.463 241.079C127.002 250.168 127.16 259.283 125.937 268.326C125.359 272.315 124.965 276.376 123.716 280.221C122.645 283.205 120.831 285.847 119.083 288.469C115.494 294.068 111.61 299.444 107.352 304.55C103.869 308.769 101.2 313.554 98.2036 318.108C95.9363 321.604 93.3667 325.028 89.7785 327.263C80.8472 332.967 69.78 331.232 59.7775 330.483C51.1289 329.925 42.513 331.009 33.8775 331.186C22.37 331.403 11.0532 328.873 -0.414856 328.42C-17.6662 327.394 -34.7795 333.388 -48.7055 343.364C-60.9556 351.993 -66.798 360.155 -83.3199 359.998ZM-90.3124 357.56C-71.2341 359.065 -66.7652 354.182 -52.7012 343.292C-36.4291 330.845 -16.0824 324.128 4.42867 326.612C13.0971 327.197 21.6668 328.886 30.3615 329.018C38.8525 329.156 47.3105 327.94 55.808 328.19C69.9509 328.669 85.8419 332.803 94.9703 318.627C97.6451 314.803 99.9321 310.721 102.594 306.89C104.782 303.755 107.306 300.87 109.639 297.84C111.992 294.824 114.127 291.656 116.217 288.449C118.57 284.861 121.304 281.338 122.224 277.066C123.795 269.528 124.551 261.839 124.892 254.15C125.135 247.959 124.406 241.782 124.636 235.591C124.925 227.507 125.918 219.187 124.189 211.216C121.928 201.653 114.634 194.497 109.678 186.288C105.886 180.301 103.672 173.473 99.6823 167.591C96.5146 162.938 94.7731 157.556 94.0962 151.996C93.3601 147.356 92.0523 142.703 90.4028 138.333C88.5429 133.588 86.8933 128.705 84.626 124.144C83.0422 120.917 80.8603 118.039 78.9676 114.996C75.0967 108.529 71.7976 101.734 67.2564 95.6809C69.2871 99.9263 71.1996 104.31 73.0003 108.614C69.6354 104.441 66.6123 99.9395 64.7788 94.866C63.839 92.3555 63.3461 89.6938 61.7754 87.4791C61.4534 86.8153 60.7305 85.2709 61.6637 84.8766C60.0798 79.5796 57.9702 74.4601 56.1432 69.2486C53.8956 63.1629 51.5429 57.0905 48.2832 51.4649C44.0049 44.3935 38.2282 38.2356 32.8589 32.0711C26.6813 25.2165 18.578 20.6556 10.8297 15.8318C4.24464 11.3498 -2.6165 7.03198 -10.1677 4.40321C-16.3387 2.10303 -23.0421 2.07018 -29.5483 2.25419C-34.9636 2.52364 -40.4051 2.62222 -45.7876 3.36485C-52.9378 4.65952 -59.2141 8.72097 -65.694 11.8164C-82.5444 21.2931 -94.4988 37.8215 -100.276 56.0849C-106.197 76.596 -104.146 88.5438 -95.7211 107.786C-92.3957 114.667 -88.9849 121.548 -86.9147 128.935C-85.6003 132.937 -85.5609 137.104 -86.0473 141.251C-86.6322 147.888 -87.6969 154.572 -89.859 160.888C-92.1789 166.75 -94.2293 172.704 -96.3586 178.632C-98.2513 183.206 -100.249 187.747 -101.715 192.433C-103.489 198.795 -105.336 205.143 -108.136 211.143C-109.351 213.976 -110.574 216.828 -112.151 219.49C-113.748 222.125 -115.956 224.366 -117.908 226.712C-121.293 230.616 -124.46 234.723 -127.096 239.173C-130.368 244.936 -133.03 251.022 -136.369 256.759C-141.521 266.578 -148.599 275.384 -152.47 285.833C-153.955 290.309 -155.434 294.936 -155.191 299.707C-154.901 304.701 -153.548 309.598 -152.016 314.342C-150.334 318.752 -147.856 322.827 -145.208 326.717C-139.451 334.998 -131.571 341.708 -123.093 347.031C-118.099 349.772 -112.953 352.177 -107.584 354.063C-101.945 355.785 -96.1483 356.981 -90.3124 357.56ZM62.4063 87.42C62.2026 86.7168 61.9988 86.0136 61.7951 85.3104C61.6242 85.5272 61.7556 85.8295 61.7951 86.0793C61.7951 86.0661 61.7885 86.053 61.7885 86.0398C61.9199 86.5262 62.1303 86.9928 62.4063 87.42Z" fill="#95A67C"/>
<path d="M12.2496 100.419C7.40603 99.4597 3.06197 96.6995 -1.89327 96.108C-3.41796 95.832 -4.79156 95.6808 -6.30968 95.7071C-6.67771 95.7465 -7.39401 95.7005 -7.17056 95.1748C-5.96132 94.419 -4.1409 94.511 -2.7345 94.5373C1.30724 94.7147 5.18465 95.9437 8.89122 97.4815C10.3042 97.9087 11.8158 98.7105 13.3142 98.303C15.1741 97.6853 14.5694 95.3785 13.4522 94.3139C11.382 92.4014 7.95149 91.3499 5.25042 92.3686C4.09376 92.914 2.9634 93.1178 1.72787 92.8352C3.04883 87.9128 11.474 89.8384 14.2868 92.4606C17.6911 95.2011 17.632 100.958 12.2496 100.419Z" fill="#95A67C"/>
</svg>
